# generated from PmQm by Jehee Lee
:FULLY-SPECIFIED
:DEGREES
137
root 44.68952432 35.6406 -91.43069356 172.974694 72.39881172 -178.8467057
RightUpLeg -38.32133539 -7.355173432 -0.5146393571
RightLeg 36.45676888 2.183520409 1.295544063
RightFoot -5.474492551 7.876844499 2.01242196
RightToes 1.74622e-010 -3.18055e-015 8.94531e-016
Spine 26.909 -1.19956 -1.03121
Spine1 13.6602 -1.8902 1.63807
HEad -28.4666 -1.86741 7.25648
LeftShoulder1 0 -2.69403e-036 -1.28585e-037
LeftArm 12.01 0.402261 -85.9278
LeftForeArm -36.3323 -45.7487 27.1059
LeftHand 0.963486 7.01936 -0.950806
RightShoulder -2.48481e-017 0 -8.08114e-019
RightArm 19.6663 -14.5049 83.5149
RightForeArm -38.5519 26.183 -24.4087
RightHand 1.608 -12.1501 -8.11511
LeftUpLeg -21.49661121 -9.738207936 2.125020506
LeftLeg 60.45974777 0 0
LeftFoot -25.30831555 -0.9014113237 4.337146766
LeftToes 4.94765e-010 2.02697e-011 4.00889e-011
138
root 45.56718745 34.8749 -91.43417874 172.1820638 71.69768762 -179.0247313
RightUpLeg -39.8213708 -6.633676933 -0.4757266062
RightLeg 32.596708 2.02151234 1.434972737
RightFoot -5.497404999 7.595242473 1.67060479
RightToes 1.74622e-010 -3.18055e-015 8.94531e-016
Spine 31.3882 -0.976973 -1.58145
Spine1 13.0629 -2.12129 2.58934
HEad -31.372 -1.86984 7.49848
LeftShoulder1 0 -2.69403e-036 -1.28585e-037
LeftArm 11.8184 -3.34706 -86.2162
LeftForeArm -35.6867 -45.7688 27.166
LeftHand 0.935363 6.84023 -0.0165595
RightShoulder -2.48481e-017 0 -8.08114e-019
RightArm 18.949 -12.2539 82.5864
RightForeArm -37.682 26.5592 -24.7131
RightHand 1.64779 -12.2296 -8.61206
LeftUpLeg -22.5017667 -8.842016705 3.461512688
LeftLeg 66.77542294 0 0
LeftFoot -26.2125244 -2.964698023 3.387463631
LeftToes 4.94765e-010 2.02697e-011 4.00889e-011
139
root 46.48170769 33.8943 -91.3913863 172.0857234 70.72945747 -178.7203106
RightUpLeg -42.76281329 -5.151345478 -0.7373331301
RightLeg 35.72728934 0 0
RightFoot -3.202125798 7.243341202 -0.214199494
RightToes 1.74622e-010 -3.18055e-015 8.94531e-016
Spine 35.2758 -0.918323 -1.55621
Spine1 13.0074 -2.30961 3.11951
HEad -34.6276 -2.17969 7.88413
LeftShoulder1 0 -2.69403e-036 -1.28585e-037
LeftArm 12.8713 -7.36209 -86.3656
LeftForeArm -35.6635 -44.5784 26.4085
LeftHand 0.914557 6.73012 0.877633
RightShoulder -2.48481e-017 0 -8.08114e-019
RightArm 18.0501 -9.6307 81.6195
RightForeArm -36.6609 26.8965 -25.0032
RightHand 1.72714 -12.4041 -9.50522
LeftUpLeg -24.10902584 -8.160781114 5.369404393
LeftLeg 73.91923345 0 0
LeftFoot -27.12302543 -5.583361732 2.588849528
LeftToes 4.94765e-010 2.02697e-011 4.00889e-011
140
root 47.51331841 32.6777 -91.35128213 172.0099199 69.43277916 -178.9692892
RightUpLeg -47.14354046 -5.492119293 -1.704891789
RightLeg 44.47453571 0 0
RightFoot 0.05561350476 4.969245115 -2.648007583
RightToes 1.74622e-010 -3.18055e-015 8.94531e-016
Spine 37.9582 -1.24952 -1.49011
Spine1 13.2616 -2.53073 2.75364
HEad -38.0305 -2.45198 8.46132
LeftShoulder1 0 -2.69403e-036 -1.28585e-037
LeftArm 14.7607 -11.6491 -86.1978
LeftForeArm -35.3755 -42.1926 25.0088
LeftHand 0.87558 6.52227 1.94217
RightShoulder -2.48481e-017 0 -8.08114e-019
RightArm 17.5266 -6.34543 80.7899
RightForeArm -35.9031 26.8448 -25.0145
RightHand 1.80054 -12.5283 -10.4129
LeftUpLeg -26.08400417 -8.156101645 7.286526421
LeftLeg 81.25274707 0 0
LeftFoot -28.84267345 -8.400885505 1.804570628
LeftToes 4.94765e-010 2.02697e-011 4.00889e-011
141
root 48.62789274 31.306 -91.3179056 171.8739499 67.98605879 -179.5717642
RightUpLeg -52.26692699 -7.137415705 -2.494706938
RightLeg 55.01403948 0 0
RightFoot 0.8112251232 4.403802498 -4.469523289
RightToes 1.74622e-010 -3.18055e-015 8.94531e-016
Spine 40.0973 -1.7784 -1.76026
Spine1 13.3029 -2.83429 1.95357
HEad -41.4646 -2.32521 9.18852
LeftShoulder1 0 -2.69403e-036 -1.28585e-037
LeftArm 17.0297 -15.8724 -85.9116
LeftForeArm -34.3712 -38.5096 23.1025
LeftHand 0.747397 5.89103 4.12517
RightShoulder -2.48481e-017 0 -8.08114e-019
RightArm 17.6115 -2.44202 80.2418
RightForeArm -35.4634 26.2313 -24.6277
RightHand 1.82469 -12.5341 -10.827
LeftUpLeg -27.8674677 -8.511963863 9.169217906
LeftLeg 88.33217465 0 0
LeftFoot -31.34078724 -11.10309367 1.004783059
LeftToes 4.94765e-010 2.02697e-011 4.00889e-011
142
root 49.68763783 29.9443 -91.2649113 172.6824961 66.84092578 -179.0101089
RightUpLeg -56.9825103 -8.586695064 -2.57919651
RightLeg 64.76624805 0 0
RightFoot -1.749089891 4.307028573 -7.044015672
RightToes 1.74622e-010 -3.18055e-015 8.94531e-016
Spine 42.8455 -2.21932 -1.78977
Spine1 12.9038 -3.11338 1.55357
HEad -44.8793 -1.88881 9.9368
LeftShoulder1 0 -2.69403e-036 -1.28585e-037
LeftArm 19.9911 -19.7681 -85.7832
LeftForeArm -34.0097 -33.8333 20.9196
LeftHand 0.537002 5.06937 7.24925
RightShoulder -2.48481e-017 0 -8.08114e-019
RightArm 18.1553 1.74206 79.9335
RightForeArm -35.1565 25.1959 -23.9599
RightHand 1.82723 -12.5373 -10.8612
LeftUpLeg -29.28780587 -8.785513894 11.63316192
LeftLeg 95.0323256 0 0
LeftFoot -33.3368075 -13.29163399 0.1357419148
LeftToes 4.94765e-010 2.02697e-011 4.00889e-011
143
root 50.65604569 28.6113 -91.18925174 174.6432757 66.09037334 -176.9763825
RightUpLeg -60.95417496 -9.37618069 -1.837472125
RightLeg 73.27929973 0 0
RightFoot -5.104824965 3.468002505 -9.962953116
RightToes 1.74622e-010 -3.18055e-015 8.94531e-016
Spine 46.4188 -2.57018 -1.30334
Spine1 11.9908 -3.25778 1.65958
HEad -48.2289 -1.4499 10.5391
LeftShoulder1 0 -2.69403e-036 -1.28585e-037
LeftArm 24.1173 -23.2911 -85.7377
LeftForeArm -35.6831 -29.0748 18.8427
LeftHand 0.37831 4.56853 9.43039
RightShoulder -2.48481e-017 0 -8.08114e-019
RightArm 18.9574 5.96996 79.7941
RightForeArm -34.8381 23.9979 -23.2023
RightHand 1.8729 -12.687 -11.1407
LeftUpLeg -30.72997614 -9.145612074 14.95966977
LeftLeg 101.710921 0 0
LeftFoot -33.7403559 -15.01976847 -0.8345254582
LeftToes 4.94765e-010 2.02697e-011 4.00889e-011
144
root 51.56472595 27.2722 -91.10636926 177.2056881 65.49456035 -174.348087
RightUpLeg -64.60823041 -9.936600231 -0.5436506155
RightLeg 80.90302996 0 0
RightFoot -7.703535778 1.944564567 -11.98058884
RightToes 1.74622e-010 -3.18055e-015 8.94531e-016
Spine 50.1389 -3.03495 -0.592774
Spine1 10.7899 -3.35276 1.84877
HEad -51.4183 -1.0142 10.8909
LeftShoulder1 0 -2.69403e-036 -1.28585e-037
LeftArm 27.7495 -26.7006 -85.4209
LeftForeArm -37.0728 -25.0098 16.2972
LeftHand 0.338705 4.41255 9.60842
RightShoulder -2.48481e-017 0 -8.08114e-019
RightArm 19.8488 10.2555 79.8844
RightForeArm -34.4228 22.8236 -22.4823
RightHand 1.95288 -12.8908 -11.8003
LeftUpLeg -32.53091464 -10.07140907 18.83607901
LeftLeg 108.3097964 0 0
LeftFoot -32.69992292 -16.7371584 -1.830226004
LeftToes 4.94765e-010 2.02697e-011 4.00889e-011
145
root 52.42349873 25.996 -91.0143769 179.7640409 64.95435438 -172.0178225
RightUpLeg -68.30768115 -10.50300707 1.007801434
RightLeg 87.70202461 0 0
RightFoot -10.1329187 0.223290088 -13.16653598
RightToes 1.74622e-010 -3.18055e-015 8.94531e-016
Spine 53.4097 -3.60713 -0.0193566
Spine1 9.78135 -3.52078 1.95082
HEad -54.1651 -0.371436 11.0357
LeftShoulder1 0 -2.69403e-036 -1.28585e-037
LeftArm 17.1785 -30.7603 -84.151
LeftForeArm -22.9152 -21.2078 7.91638
LeftHand 0.314026 4.2438 9.16364
RightShoulder -2.48481e-017 0 -8.08114e-019
RightArm 20.8041 14.7113 80.2353
RightForeArm -33.8965 21.6829 -21.8045
RightHand 1.98152 -12.9028 -12.2411
LeftUpLeg -34.40562871 -11.48888971 22.77430925
LeftLeg 114.0932427 0 0
LeftFoot -31.36875429 -18.83155028 -2.838308329
LeftToes 4.94765e-010 2.02697e-011 4.00889e-011
